# xmcd CD database file
#
# Track frame offsets:
#	150
#	12706
#	23002
#	37000
#	46671
#	62650
#	75300
#	91307
#	107694
#	122503
#	139125
#	153846
#	167020
#	181911
#	200502
#	214210
#	228734
#	241098
#	257430
#	270251
#	284114
#	296565
#	309068
#	325157
#	340376
#
# Disc length: 4723 seconds
#
# Revision: 0
# Processed by: cddbd v1.5.1PL0 Copyright (c) Steve Scherf et al.
# Submitted via: CDex 1.51
#
DISCID=56127119
DTITLE=Rheinstone Cowboys - Rheinstone Cowboys
DYEAR=2004
DGENRE=Country
TTITLE0=Rheinstone Cowboys - Bleib noch hier
TTITLE1=Rheinstone Cowboys - Cotton (Ei) Joe
TTITLE2=Rheinstone Cowboys - Cowboys küssen sowieso
TTITLE3=Rheinstone Cowboys - Country Lady
TTITLE4=Rheinstone Cowboys - Die Rose vom Bensberg
TTITLE5=Rheinstone Cowboys - Eisen im Feuer
TTITLE6=Rheinstone Cowboys - Heimjonn fällt so schwer
TTITLE7=Rheinstone Cowboys - Heemwih is schlimmer als Pien
TTITLE8=Rheinstone Cowboys - Hück wedd dat Päd jesaddelt
TTITLE9=Rheinstone Cowboys - Hueck weed juut
TTITLE10=Rheinstone Cowboys - Jeder ist doch irgendwo ein Trucker
TTITLE11=Rheinstone Cowboys - Kein Parkplatz
TTITLE12=Rheinstone Cowboys - Links un rääts vum Rhing
TTITLE13=Rheinstone Cowboys - Lonesome Blue
TTITLE14=Rheinstone Cowboys - Mi Mädsche us Kölle
TTITLE15=Rheinstone Cowboys - Ming Mafia
TTITLE16=Rheinstone Cowboys - Mir sin kölsche Cowboys
TTITLE17=Rheinstone Cowboys - Och ene Cowboy muss ens dusche
TTITLE18=Rheinstone Cowboys - Old Kentucky
TTITLE19=Rheinstone Cowboys - Un dann traeum ich vun Virginia
TTITLE20=Rheinstone Cowboys - Von Kueste zu Kueste
TTITLE21=Rheinstone Cowboys - Weiss de wat
TTITLE22=Rheinstone Cowboys - Wenn mer kein Glueck hat
TTITLE23=Rio Carter - Aus und vorbei, mit der Fernfahrerei
TTITLE24=Tennesee - Tausche Ufo gegen 30 Tonner Diesel
EXTD=YEAR: 2004
EXTT0=
EXTT1=
EXTT2=
EXTT3=
EXTT4=
EXTT5=
EXTT6=
EXTT7=
EXTT8=
EXTT9=
EXTT10=
EXTT11=
EXTT12=
EXTT13=
EXTT14=
EXTT15=
EXTT16=
EXTT17=
EXTT18=
EXTT19=
EXTT20=
EXTT21=
EXTT22=
EXTT23=
EXTT24=
PLAYORDER=
